<?xml version="1.0" standalone="no"?><!DOCTYPE svg PUBLIC "-//W3C//DTD SVG 1.1//EN" "http://www.w3.org/Graphics/SVG/1.1/DTD/svg11.dtd"><svg t="1609319003006" class="icon" viewBox="0 0 1024 1024" version="1.1" xmlns="http://www.w3.org/2000/svg" p-id="3965" xmlns:xlink="http://www.w3.org/1999/xlink" width="200" height="200"><defs><style type="text/css"></style></defs><path d="M50.65 446.9l368.05-365.7s67.05-34.15 113.9 0 371.75 369.5 371.75 369.5 11.4 93.65-113.6 92.4V862s-31.95 58.05-99.95 56.95c0 0-57.25 1.1-96.15-59.5v-313.85H355.4v303.7s-30.35 81-108.85 69.6c0 0-68.35-11.4-87.3-62v-311.3S38.15 538 50.65 446.9zM702.2 107.05l143 141.75s22.8 11.4 29.1-20.25 6.35-135.4 6.35-135.4-2.55-22.8-24.05-16.45l-143-1.1c0-0.05-22.8 4.85-11.4 31.45z" fill="#285DE8" p-id="3966"></path></svg>