<?xml version="1.0" standalone="no"?><!DOCTYPE svg PUBLIC "-//W3C//DTD SVG 1.1//EN" "http://www.w3.org/Graphics/SVG/1.1/DTD/svg11.dtd"><svg t="1609318956046" class="icon" viewBox="0 0 1024 1024" version="1.1" xmlns="http://www.w3.org/2000/svg" p-id="3111" xmlns:xlink="http://www.w3.org/1999/xlink" width="200" height="200"><defs><style type="text/css"></style></defs><path d="M982.85567393 424.33317783l-441.16207287-325.21563065c-16.96777203-12.72582902-41.00544908-12.72582902-57.97322112 0l-441.16207286 325.21563065c-15.55379103 11.31184801-18.38175303 33.93554407-7.06990502 49.4893351s33.93554407 18.38175303 49.4893351 7.069905L512 166.98863531l428.43624385 315.31776363c5.65592402 4.24194301 14.13981003 7.06990501 21.20971503 7.06990502 11.31184801 0 21.20971504-5.65592402 28.27962006-14.13981002 11.31184801-16.96777203 8.48388603-38.17748707-7.06990501-50.90331611z" fill="#999999" p-id="3112"></path><path d="M827.31776362 486.54834195v356.32321271c0 11.31184801-7.06990501 19.79573404-14.13981002 19.79573403H663.29596729v-141.39810027c0-46.6613731-38.17748707-86.25284116-84.83886015-86.25284117h-132.91421428c-46.6613731 0-84.83886017 38.17748707-84.83886015 86.25284117v141.39810027H210.8220464c-7.06990501 0-14.13981003-8.48388603-14.13981002-19.79573403V486.54834195c-39.59146809 7.06990501-70.69905013 43.83341109-70.69905014 89.08080317v268.65639055c0 49.48933509 38.17748707 90.49478418 84.83886016 90.49478417h220.58103645v-212.09715042c0-8.48388603 5.65592402-15.55379103 14.13981001-15.55379104h132.91421428c8.48388603 0 14.13981003 7.06990501 14.13981001 15.55379104v212.09715042h220.58103645c46.6613731 0 84.83886017-41.00544908 84.83886016-90.49478417v-268.65639055c0-45.24739209-31.10758207-82.01089817-70.69905014-89.08080317z" fill="#999999" p-id="3113"></path></svg>