<?xml version="1.0" standalone="no"?><!DOCTYPE svg PUBLIC "-//W3C//DTD SVG 1.1//EN" "http://www.w3.org/Graphics/SVG/1.1/DTD/svg11.dtd"><svg t="1609319206187" class="icon" viewBox="0 0 1024 1024" version="1.1" xmlns="http://www.w3.org/2000/svg" p-id="8271" xmlns:xlink="http://www.w3.org/1999/xlink" width="200" height="200"><defs><style type="text/css"></style></defs><path d="M512.1 592.9c-69.4 0-134.7-27-183.8-76.1-49.1-49.1-76.1-114.4-76.1-183.8s27-134.7 76.1-183.8S442.7 73 512.1 73s134.7 27 183.8 76.1C745 198.2 772 263.5 772 332.9s-27 134.7-76.1 183.8c-49.1 49.2-114.4 76.2-183.8 76.2z m0-439.9c-99.2 0-180 80.7-180 180s80.7 180 180 180c99.2 0 180-80.7 180-180s-80.8-180-180-180z" p-id="8272" fill="#13227a"></path><path d="M870.2 951c-22.1 0-40-17.9-40-40 0-175.4-142.7-318.1-318.1-318.1C336.7 592.9 194 735.6 194 911c0 22.1-17.9 40-40 40s-40-17.9-40-40c0-53.7 10.5-105.9 31.3-155 20.1-47.4 48.7-90 85.3-126.5 36.5-36.5 79.1-65.2 126.5-85.3 49.1-20.8 101.2-31.3 155-31.3 53.7 0 105.9 10.5 155 31.3 47.4 20.1 90 48.7 126.5 85.3s65.2 79.1 85.3 126.5c20.8 49.1 31.3 101.2 31.3 155 0 22.1-17.9 40-40 40z" p-id="8273" fill="#13227a"></path></svg>