<?xml version="1.0" standalone="no"?><!DOCTYPE svg PUBLIC "-//W3C//DTD SVG 1.1//EN" "http://www.w3.org/Graphics/SVG/1.1/DTD/svg11.dtd"><svg t="1609319147415" class="icon" viewBox="0 0 1024 1024" version="1.1" xmlns="http://www.w3.org/2000/svg" p-id="6828" xmlns:xlink="http://www.w3.org/1999/xlink" width="200" height="200"><defs><style type="text/css"></style></defs><path d="M895.857778 751.587556H324.920889c-45.226667-0.398222-82.944-36.010667-87.665778-82.773334l-39.708444-377.742222c-2.844444-26.424889 5.347556-52.849778 22.471111-72.618667a86.471111 86.471111 0 0 1 65.422222-30.350222h651.121778a87.125333 87.125333 0 0 1 64.426666 31.630222c17.066667 19.825778 25.230222 46.222222 22.471112 72.647111l-39.68 376.462223c-4.608 46.876444-42.552889 82.602667-87.921778 82.773333zM285.44 265.955556a12.8 12.8 0 0 0-9.728 4.664888 15.701333 15.701333 0 0 0-3.726222 12.202667l40.192 377.998222a13.994667 13.994667 0 0 0 13.255111 13.226667h570.424889a13.966222 13.966222 0 0 0 13.482666-13.226667l39.708445-378.026666a16.782222 16.782222 0 0 0-3.754667-12.174223 12.8 12.8 0 0 0-9.728-4.664888H285.468444zM254.008889 508.757333c-18.972444 0-34.958222-14.705778-37.233778-34.247111L172.088889 90.026667a14.193778 14.193778 0 0 0-13.255111-12.202667H37.461333C16.782222 77.824 0 60.416 0 38.912 0 17.436444 16.782222 0 37.461333 0h121.372445C203.093333 0.341333 240.298667 34.417778 246.243556 79.928889l44.942222 386.019555c1.223111 10.24-1.564444 20.593778-7.68 28.728889-6.144 8.106667-15.132444 13.368889-25.031111 14.592l-4.465778-0.512z m142.336 333.653334c27.591111 0 49.948444 23.210667 49.948444 51.882666 0 28.643556-22.357333 51.882667-49.948444 51.882667s-49.948444-23.239111-49.948445-51.882667c0-28.672 22.385778-51.911111 49.948445-51.911111z m0-77.852445c-68.949333 0-124.871111 58.083556-124.871111 129.706667 0 71.68 55.921778 129.735111 124.871111 129.735111 68.977778 0 124.871111-58.083556 124.871111-129.706667 0-34.417778-13.141333-67.413333-36.551111-91.733333a122.567111 122.567111 0 0 0-88.32-38.001778z m424.590222 77.824c20.195556 0 38.4 12.657778 46.136889 32.028445a53.361778 53.361778 0 0 1-10.808889 56.547555 48.583111 48.583111 0 0 1-54.442667 11.264 51.939556 51.939556 0 0 1-30.833777-47.928889c0-28.672 22.357333-51.911111 49.948444-51.911111z m0-77.824c-68.977778 0-124.871111 58.083556-124.871111 129.706667 0 71.68 55.893333 129.735111 124.871111 129.735111 68.949333 0 124.871111-58.083556 124.871111-129.706667 0-34.417778-13.169778-67.413333-36.579555-91.733333a122.567111 122.567111 0 0 0-88.291556-38.001778z" p-id="6829"></path></svg>